Coordinates
version=1
nRows=6
nColumns=36
inDegrees=yes

Units are S.I. units (second, meters, Newtons, ...)
If the header above contains a line with 'inDegrees', this indicates whether rotational values are in degrees (yes) or radians (no).

endheader
time	pelvis_tilt	pelvis_list	pelvis_rotation	pelvis_tx	pelvis_ty	pelvis_tz	hip_flexion_r	hip_adduction_r	hip_rotation_r	knee_angle_r	knee_angle_r_beta	ankle_angle_r	subtalar_angle_r	mtp_angle_r	hip_flexion_l	hip_adduction_l	hip_rotation_l	knee_angle_l	knee_angle_l_beta	ankle_angle_l	subtalar_angle_l	mtp_angle_l	lumbar_extension	lumbar_bending	lumbar_rotation	arm_flex_r	arm_add_r	arm_rot_r	elbow_flex_r	pro_sup_r	arm_flex_l	arm_add_l	arm_rot_l	elbow_flex_l	pro_sup_l
      5.06666670	     -6.92764631	      0.35658142	      1.15222180	      0.98486204	      1.02792537	      0.00096606	      4.66584666	     -4.29817473	      0.75030145	      3.58332306	      0.06254079	      7.46200616	     -7.29420691	     -7.49999987	      5.91542247	      2.49669941	      1.59397917	      1.23605767	      0.02157328	      7.80087455	     -3.37735469	     -7.49999987	      0.31056335	     -2.51574032	     -0.62091977	    -14.77927999	    -20.54258207	     25.35358519	     43.53480031	     76.60908086	    -26.27868545	    -22.86270802	      0.20673828	     30.07516029	     57.18886396
      5.08333330	     -6.66068280	      0.42611713	      1.59540820	      0.98323232	      1.02567725	      0.00142678	      4.68014811	     -4.37681458	      0.87623283	      4.18471954	      0.07303713	      7.75675024	     -8.32827048	     -7.49999987	      5.75635245	      2.56215058	      1.81317099	      1.24770154	      0.02177650	      8.03305485	     -3.23034789	     -7.49999987	      0.05201066	     -2.42378170	     -0.01091355	    -13.99061436	    -19.34102992	     21.88843908	     42.43694788	     77.89755197	    -24.68139111	    -22.10023199	     -2.52535153	     28.51472452	     58.28105798
      5.10000000	     -6.40761969	      0.46510022	      2.30192624	      0.97943618	      1.02059684	     -0.00266138	      4.90172714	     -4.54108617	      0.55335501	      5.07181442	      0.08851986	      8.48156522	     -8.90948785	     -7.49999987	      5.68464541	      2.70274224	      2.42034425	      1.34239680	      0.02342924	      8.52246051	     -2.98583949	     -7.49999987	     -0.20774396	     -2.37331822	      0.03677925	    -12.63188409	    -18.49989923	     19.98551084	     41.27707856	     76.86127453	    -23.01830421	    -21.17058390	     -4.52758746	     27.63486701	     58.08259865
      5.11666670	     -6.26689563	      0.55311144	      2.58538791	      0.97520854	      1.01947223	     -0.00322599	      5.51258731	     -4.63984427	      1.30051866	      6.35192060	      0.11086193	      8.61080435	    -10.49672724	     -7.49999987	      5.80999628	      2.83446955	      2.46006960	      1.50346386	      0.02624039	      8.62814047	     -2.78035257	     -7.49999987	     -0.49209752	     -2.30048137	      0.62314016	    -11.43355234	    -17.37556642	     16.54576034	     40.65822039	     72.89309602	    -21.30973655	    -19.64875372	     -8.78820304	     27.71366881	     58.32162100
      5.13333330	     -6.47696144	      0.58152484	      3.22842721	      0.97479229	      1.02608774	     -0.00483542	      6.45756108	     -4.77437142	      1.38765487	      7.70070508	      0.13440266	      8.57091688	    -11.69815746	     -7.49999987	      6.27291494	      2.94864427	      2.78064226	      1.65955027	      0.02896462	      8.54820991	     -2.65940501	     -7.49999987	     -0.31807991	     -2.10936965	      0.70300967	    -10.63248380	    -15.61380011	      9.65344959	     40.26745613	     83.76069327	    -19.13275213	    -17.56570302	    -16.22160458	     27.47554043	     68.62622749
      5.15000000	     -6.54445948	      0.57284509	      3.75556200	      0.97455782	      1.03387407	     -0.00695476	      7.24601435	     -4.87907179	      1.41325805	      8.98626008	      0.15683983	      8.26957439	    -12.42529684	     -7.49999987	      6.48815754	      3.00714930	      2.91889262	      1.64082145	      0.02863774	      8.25622247	     -2.22995227	     -7.49999987	     -0.15061249	     -1.87351900	      0.37461768	     -8.79161040	    -14.43550392	      7.36506400	     38.94124407	     82.22695246	    -16.64543999	    -16.43051134	    -17.11175107	     26.64379786	     68.75375771
